# xmcd
#
# Track frame offsets:
#	150
#	18060
#	34960
#	49245
#	63628
#	79010
#	91275
#	110052
#	122208
#	137853
#	157937
#	178440
#	193688
#	206998
#	226936
#
# Disc length: 3209 seconds
#
# Revision: 4
# Processed by: cddbd v1.5.2PL0 Copyright (c) Steve Scherf et al.
# Submitted via: audiograbber 1.83.01
#
DISCID=d80c870f
DTITLE=Various Artist - SC7593
DYEAR=2002
DGENRE=Karaoke Country
TTITLE0=Garth Brooks - Ain't Goin' Down Til The Sun Comes Up
TTITLE1=Sammy Kershaw - Queen Of My Double Wide Trailer
TTITLE2=Tim McGTraw - Indian Outlaw
TTITLE3=Travis Tritt - TROUBLE
TTITLE4=Tim McGraw - I Like It, I Love It
TTITLE5=Tracy Lawrence - If The Good Die Young
TTITLE6=Shania Twain - Man! I Feel Like A Woman
TTITLE7=John Michael Montgomery - Sold (The Grundy County Auction Incident)
TTITLE8=Mindy McCready - Guys Do It All The Time
TTITLE9=Shania Twain - Any Man Of Mine
TTITLE10=Dixie Chicks, The - Goodbye Earl
TTITLE11=Sawyer Brown - Some Girls Go
TTITLE12=Lorrie Morgan - What Part Of No
TTITLE13=Trisha yearwood - She's In Love With The Boy
TTITLE14=Toby Keith - Little Less Talk and A Lot More Action, A
EXTD=
EXTT0=
EXTT1=
EXTT2=
EXTT3=
EXTT4=
EXTT5=
EXTT6=
EXTT7=
EXTT8=
EXTT9=
EXTT10=
EXTT11=
EXTT12=
EXTT13=
EXTT14=
PLAYORDER=
